<svg id="Layer_1" xmlns="http://www.w3.org/2000/svg" viewBox="0 0 100 100">
    <title>F12</title>
    <g id="Complete">
        <g id="F12">
            <path d="M53.34,96.24,88.4,76a6.73,6.73,0,0,0,3.35-5.79V29.77A6.73,6.73,0,0,0,88.4,24L53.34,3.76a6.65,6.65,0,0,0-6.68,0L11.6,24a6.73,6.73,0,0,0-3.35,5.79V70.23A6.73,6.73,0,0,0,11.6,76L46.66,96.24a6.65,6.65,0,0,0,6.68,0Z"
                  fill="#a4d183"/>
            <path d="M50,4.72a4.84,4.84,0,0,0-2.41.65L12.53,25.6a4.82,4.82,0,0,0-2.41,4.17V70.23a4.82,4.82,0,0,0,2.41,4.17L47.59,94.63a4.82,4.82,0,0,0,4.82,0L87.47,74.4a4.83,4.83,0,0,0,2.42-4.17V29.77a4.83,4.83,0,0,0-2.42-4.17L52.41,5.37A4.84,4.84,0,0,0,50,4.72m4.28-2.57L89.33,22.37a8.57,8.57,0,0,1,4.28,7.4V70.23a8.57,8.57,0,0,1-4.28,7.4l-35,20.22a8.56,8.56,0,0,1-8.56,0l-35-20.22a8.57,8.57,0,0,1-4.28-7.4V29.77a8.57,8.57,0,0,1,4.28-7.4L45.72,2.15a8.54,8.54,0,0,1,8.56,0Z"
                  fill="#5c9a43"/>
            <rect x="25.55" y="33.78" width="48.8" height="32.87" rx="1.79" fill="#f1f1f2"/>
            <polygon points="39.05 51.88 31.92 44.75 36.09 44.75 43.22 51.88 36.14 58.96 31.97 58.96 39.05 51.88"
                     fill="#5c9a43"/>
            <path d="M76.45,35.57V64.85a3.89,3.89,0,0,1-3.89,3.89H27.34a3.9,3.9,0,0,1-3.89-3.89V35.57a3.9,3.9,0,0,1,3.89-3.89H72.56A3.89,3.89,0,0,1,76.45,35.57Zm-2.1,29.28V38H25.55V64.85a1.79,1.79,0,0,0,1.79,1.8H72.56A1.79,1.79,0,0,0,74.35,64.85Z"
                  fill="#5c9a43"/>
        </g>
    </g>
</svg>